<?xml version="1.0" encoding="utf-8"?>
<!-- Generator: Adobe Illustrator 21.1.0, SVG Export Plug-In . SVG Version: 6.00 Build 0)  -->
<svg version="1.1" id="圖層_1" xmlns="http://www.w3.org/2000/svg" xmlns:xlink="http://www.w3.org/1999/xlink" x="0px" y="0px"
	 viewBox="0 0 708.7 510.2" style="enable-background:new 0 0 708.7 510.2;" xml:space="preserve">
<style type="text/css">
	.st0{fill:#231815;}
	.st1{fill:url(#SVGID_1_);}
	.st2{fill:url(#SVGID_2_);}
	.st3{fill:url(#SVGID_3_);}
	.st4{fill:url(#SVGID_4_);}
	.st5{fill:url(#SVGID_5_);}
	.st6{font-family:'Formula1-Display-Regular';}
	.st7{font-size:76.9991px;}
</style>
<g>
	<g>
		<path class="st0" d="M265,125.7c-11.5,0.1-21.2,4.7-26.9,15.1c-9.4,17.3-18.4,34.7-29,54.9c29,0,55,0,81,0
			c12.1,0,20.7-6.2,26.3-16c9.3-16.3,17.7-33.2,28.8-54.1C315.2,125.7,290.1,125.5,265,125.7z"/>
		<path class="st0" d="M401.1,55.5c-11.5,0.1-21.2,4.7-26.9,15.1c-9.4,17.3-18.4,34.7-29,54.9c29,0,55,0,81,0
			c12.1,0,20.7-6.2,26.3-16c9.3-16.3,17.7-33.2,28.8-54.1C451.3,55.4,426.2,55.3,401.1,55.5z"/>
	</g>
	<g>
		<path class="st0" d="M197.7,270c-10.8,0.1-19.9,4.4-25.3,14.2c-8.8,16.2-17.3,32.7-27.3,51.7c27.3,0,51.7,0,76.2,0
			c11.4,0,19.5-5.8,24.8-15.1c8.7-15.4,16.7-31.2,27.1-50.9C244.9,269.9,221.3,269.7,197.7,270z"/>
		<path class="st0" d="M325.7,203.9c-10.8,0.1-19.9,4.4-25.3,14.2c-8.8,16.2-17.3,32.7-27.3,51.7c27.3,0,51.7,0,76.2,0
			c11.4,0,19.5-5.8,24.8-15.1c8.7-15.4,16.7-31.2,27.1-50.9C372.9,203.8,349.3,203.7,325.7,203.9z"/>
	</g>
	<g>
		<path class="st0" d="M59.6,336c-12.3,0.1-22.6,5-28.7,16.1c-10,18.4-19.6,37-30.9,58.5c30.9,0,58.6,0,86.3,0
			c12.9,0,22.1-6.6,28.1-17.1c9.9-17.4,18.9-35.3,30.7-57.7C113.1,335.9,86.3,335.7,59.6,336z"/>
		<path class="st0" d="M197.7,269.8c-10.8,0.1-19.9,4.4-25.3,14.2c-8.8,16.2-17.3,32.7-27.3,51.7c27.3,0,51.7,0,76.2,0
			c11.4,0,19.5-5.8,24.8-15.1c8.7-15.4,16.7-31.2,27.1-50.9C244.9,269.7,221.3,269.5,197.7,269.8z"/>
	</g>
	<g>
		<path class="st0" d="M109.1,125.7c-9.6,0.1-17.8,3.9-22.5,12.7c-7.9,14.5-15.4,29.1-24.3,46c24.3,0,46.1,0,67.8,0
			c10.1,0,17.4-5.2,22.1-13.4c7.8-13.7,14.8-27.8,24.1-45.3C151.1,125.7,130.1,125.5,109.1,125.7z"/>
		<path class="st0" d="M223.1,66.9c-9.6,0.1-17.8,3.9-22.5,12.7c-7.9,14.5-15.4,29.1-24.3,46c24.3,0,46.1,0,67.8,0
			c10.1,0,17.4-5.2,22.1-13.4c7.8-13.7,14.8-27.8,24.1-45.3C265.1,66.8,244.1,66.7,223.1,66.9z"/>
		<path class="st0" d="M63.4,66.9c-8.7,0.1-16,3.5-20.3,11.4c-7.1,13-13.8,26.2-21.8,41.4c21.8,0,41.4,0,61,0
			c9.1,0,15.6-4.6,19.8-12.1c7-12.3,13.3-25,21.7-40.7C101.2,66.8,82.3,66.7,63.4,66.9z"/>
	</g>
	<linearGradient id="SVGID_1_" gradientUnits="userSpaceOnUse" x1="317.8584" y1="165.0163" x2="437.289" y2="165.0163">
		<stop  offset="0" style="stop-color:#B42023"/>
		<stop  offset="0.3968" style="stop-color:#B52023"/>
		<stop  offset="0.5397" style="stop-color:#BA2122"/>
		<stop  offset="0.6412" style="stop-color:#C22320"/>
		<stop  offset="0.7219" style="stop-color:#CC271C"/>
		<stop  offset="0.7458" style="stop-color:#CE3420"/>
		<stop  offset="0.7866" style="stop-color:#D34F2F"/>
		<stop  offset="0.8393" style="stop-color:#DB754F"/>
		<stop  offset="0.902" style="stop-color:#E8A989"/>
		<stop  offset="0.9724" style="stop-color:#F9E7DD"/>
		<stop  offset="1" style="stop-color:#FFFFFF"/>
	</linearGradient>
	<path class="st1" d="M437.3,134.3c-9.7,18.4-17.1,33.1-25.3,47.5c-4.9,8.7-12.5,14.1-23.1,14.1c-22.8,0-45.6,0-71,0
		c9.3-17.7,17.2-33,25.4-48.2c5-9.2,13.5-13.2,23.6-13.3C388.9,134.1,410.9,134.3,437.3,134.3z"/>
</g>
<g>
	<linearGradient id="SVGID_2_" gradientUnits="userSpaceOnUse" x1="253.9448" y1="297.2805" x2="708.66" y2="297.2805">
		<stop  offset="0" style="stop-color:#B42023"/>
		<stop  offset="0.3968" style="stop-color:#B52023"/>
		<stop  offset="0.5397" style="stop-color:#BA2122"/>
		<stop  offset="0.6412" style="stop-color:#C22320"/>
		<stop  offset="0.7219" style="stop-color:#CC271C"/>
		<stop  offset="0.7458" style="stop-color:#CE3420"/>
		<stop  offset="0.7866" style="stop-color:#D34F2F"/>
		<stop  offset="0.8393" style="stop-color:#DB754F"/>
		<stop  offset="0.902" style="stop-color:#E8A989"/>
		<stop  offset="0.9724" style="stop-color:#F9E7DD"/>
		<stop  offset="1" style="stop-color:#FFFFFF"/>
	</linearGradient>
	<path class="st2" d="M612.2,266.7l-22.9,42.1c-2.5,4.6-8.2,7.4-14.9,7.5l-185.7,1c-13.8,0.1-24.4-11.4-19.3-20.9l0,0
		c5.1-9.5-5.3-20.9-19.1-20.9l-20.9,0.6l-39.9-0.6c0,0-12.5,2.9-15,7.5l-7.8,14.4l-4.7,8.7l-7.5,13.8c-2.6,4.8,2.9,8.7,16.4,11.7
		c13.6,3,32.4,4.4,56.5,4.3l268.5-1.4c24.1-0.1,44.6-1.8,61.5-4.9c16.9-3.1,26.7-7.1,29.3-11.9l20.5-37.6c5.2-9.5-5.4-21-19.3-20.9
		l-61,0.3C620.4,259.2,614.7,262.1,612.2,266.7z"/>
	<linearGradient id="SVGID_3_" gradientUnits="userSpaceOnUse" x1="303.593" y1="190.6338" x2="303.593" y2="190.6338">
		<stop  offset="0" style="stop-color:#B42023"/>
		<stop  offset="0.3968" style="stop-color:#B52023"/>
		<stop  offset="0.5397" style="stop-color:#BA2122"/>
		<stop  offset="0.6412" style="stop-color:#C22320"/>
		<stop  offset="0.7219" style="stop-color:#CC271C"/>
		<stop  offset="0.7458" style="stop-color:#CE3420"/>
		<stop  offset="0.7866" style="stop-color:#D34F2F"/>
		<stop  offset="0.8393" style="stop-color:#DB754F"/>
		<stop  offset="0.902" style="stop-color:#E8A989"/>
		<stop  offset="0.9724" style="stop-color:#F9E7DD"/>
		<stop  offset="1" style="stop-color:#FFFFFF"/>
	</linearGradient>
	<path class="st3" d="M303.6,190.6"/>
	<linearGradient id="SVGID_4_" gradientUnits="userSpaceOnUse" x1="303.593" y1="190.6338" x2="303.593" y2="190.6338">
		<stop  offset="0" style="stop-color:#B42023"/>
		<stop  offset="0.3968" style="stop-color:#B52023"/>
		<stop  offset="0.5397" style="stop-color:#BA2122"/>
		<stop  offset="0.6412" style="stop-color:#C22320"/>
		<stop  offset="0.7219" style="stop-color:#CC271C"/>
		<stop  offset="0.7458" style="stop-color:#CE3420"/>
		<stop  offset="0.7866" style="stop-color:#D34F2F"/>
		<stop  offset="0.8393" style="stop-color:#DB754F"/>
		<stop  offset="0.902" style="stop-color:#E8A989"/>
		<stop  offset="0.9724" style="stop-color:#F9E7DD"/>
		<stop  offset="1" style="stop-color:#FFFFFF"/>
	</linearGradient>
	<path class="st4" d="M303.6,190.6"/>
	<linearGradient id="SVGID_5_" gradientUnits="userSpaceOnUse" x1="303.593" y1="190.6338" x2="303.593" y2="190.6338">
		<stop  offset="0" style="stop-color:#B42023"/>
		<stop  offset="0.3968" style="stop-color:#B52023"/>
		<stop  offset="0.5397" style="stop-color:#BA2122"/>
		<stop  offset="0.6412" style="stop-color:#C22320"/>
		<stop  offset="0.7219" style="stop-color:#CC271C"/>
		<stop  offset="0.7458" style="stop-color:#CE3420"/>
		<stop  offset="0.7866" style="stop-color:#D34F2F"/>
		<stop  offset="0.8393" style="stop-color:#DB754F"/>
		<stop  offset="0.902" style="stop-color:#E8A989"/>
		<stop  offset="0.9724" style="stop-color:#F9E7DD"/>
		<stop  offset="1" style="stop-color:#FFFFFF"/>
	</linearGradient>
	<path class="st5" d="M303.6,190.6"/>
</g>
<text transform="matrix(1.1722 0 0 1 145.0996 410.7241)" class="st0 st6 st7">JUST RACE</text>
</svg>
